# xmcd
#
# Track frame offsets:
# 150
# 12662
# 22397
# 35062
# 49575
# 63865
# 73567
# 84710
# 100307
# 111177
#
# Disc length: 1635 seconds
#
#
# Revision: 1
# Processed by: cddbd v1.5.2PL0 Copyright (c) Steve Scherf et al.
# Submitted via: FreeRIP 2.951 
#
DISCID=8b06610a
DTITLE=Tommy Dorsey - Golden Hits
DYEAR=1996
DGENRE=Big Band
TTITLE0=So Rare
TTITLE1=The Thing I Want
TTITLE2=Tain't Good
TTITLE3=On Treasure Island
TTITLE4=Somebody Stole My Gal
TTITLE5=I'm Getting Sentimental Over You
TTITLE6=Marie
TTITLE7=Sweet Sue
TTITLE8=Alone
TTITLE9=You
EXTD=Made In Holland
EXTT0=
EXTT1=
EXTT2=
EXTT3=
EXTT4=
EXTT5=
EXTT6=
EXTT7=
EXTT8=
EXTT9=
PLAYORDER=
